<svg width="37" height="32" viewBox="0 0 37 32" fill="none" xmlns="http://www.w3.org/2000/svg">
<path d="M25.182 8C23.982 8.03905 22.7937 8.21868 21.6496 8.534C20.9583 8.71051 20.2547 8.84846 19.5429 8.947C19.2562 7.56144 18.4158 6.30703 17.1685 5.40284C15.9212 4.49864 14.3463 4.00212 12.7188 4V6C13.7202 6.00293 14.6934 6.28739 15.4916 6.81049C16.2897 7.33359 16.8696 8.06696 17.1437 8.9C16.515 8.8006 15.8912 8.67883 15.2741 8.535C14.0799 8.22442 12.8454 8.04468 11.5995 8C7.29594 8 4.625 11.065 4.625 16C4.625 23.51 9.32863 27.999 13.875 28H13.8773C14.8702 27.9545 15.8455 27.7546 16.7564 27.41C17.3092 27.1953 17.8976 27.057 18.5 27C19.1035 27.0569 19.6931 27.1953 20.2471 27.41C21.1576 27.7547 22.1325 27.9545 23.125 28C27.6691 27.999 32.375 23.51 32.375 16C32.375 12.31 30.4903 8 25.182 8ZM23.125 26C22.4098 25.9474 21.71 25.7905 21.0553 25.536C20.2472 25.2272 19.3819 25.0457 18.5 25C17.6196 25.0459 16.7558 25.2274 15.9493 25.536C15.2929 25.7904 14.5917 25.9473 13.875 26H13.8773C10.4664 25.999 6.9375 22.259 6.9375 16C6.9375 14.196 7.39191 10 11.5995 10C12.6508 10.0485 13.6913 10.2073 14.6982 10.473C15.8453 10.7697 17.0292 10.9466 18.2248 11H18.7925C19.9692 10.9515 21.1336 10.7713 22.2567 10.464C23.2041 10.1994 24.1876 10.0434 25.182 10C29.8266 10 30.0625 14.998 30.0625 16C30.0625 22.259 26.5336 25.999 23.125 26Z" fill="white"/>
<path d="M20.8125 7H19.6562V6C19.6569 5.46973 19.9007 4.96133 20.3342 4.58637C20.7678 4.21141 21.3556 4.00053 21.9688 4H23.125V5C23.1244 5.53027 22.8806 6.03867 22.447 6.41363C22.0135 6.78859 21.4256 6.99947 20.8125 7Z" fill="white"/>
</svg>
