<svg width="494" height="283" viewBox="0 0 494 283" fill="none" xmlns="http://www.w3.org/2000/svg">
<path d="M-190.676 246.231C-191.664 246.725 -192.065 247.926 -191.572 248.914C-191.078 249.902 -189.877 250.303 -188.889 249.81L-190.676 246.231ZM-188.889 249.81C-167.076 238.916 118.449 98.4814 312.62 35.1239C361.173 19.2814 403.876 8.30523 435.265 5.34055C450.98 3.85631 463.665 4.40153 472.778 7.22032C481.809 10.0139 487.08 14.9343 488.659 22.1894C490.286 29.6685 488.122 40.1357 480.869 54.2197C473.647 68.2422 461.539 85.547 443.782 106.554C408.275 148.561 350.403 205.114 264.561 279.46L267.18 282.484C353.075 208.091 411.13 151.38 446.837 109.137C464.687 88.0193 477.008 70.4532 484.425 56.0511C491.811 41.7104 494.495 30.1993 492.567 21.339C490.591 12.2547 483.903 6.47454 473.96 3.39896C464.098 0.348641 450.793 -0.14381 434.889 1.35827C403.041 4.36624 359.993 15.4587 311.379 31.3212C116.886 94.7838 -168.89 235.351 -190.676 246.231L-188.889 249.81Z" fill="white"/>
</svg>
