<svg width="20" height="20" viewBox="0 0 20 20" fill="none" xmlns="http://www.w3.org/2000/svg">
<path d="M3.33335 16.6667C2.87502 16.6667 2.4828 16.5036 2.15669 16.1775C1.83002 15.8508 1.66669 15.4583 1.66669 15V4.99999C1.66669 4.54166 1.83002 4.14944 2.15669 3.82333C2.4828 3.49666 2.87502 3.33333 3.33335 3.33333H16.6667C17.125 3.33333 17.5175 3.49666 17.8442 3.82333C18.1703 4.14944 18.3334 4.54166 18.3334 4.99999V15C18.3334 15.4583 18.1703 15.8508 17.8442 16.1775C17.5175 16.5036 17.125 16.6667 16.6667 16.6667H3.33335ZM16.6667 6.66666L10.4375 10.5625C10.3681 10.6042 10.295 10.6353 10.2184 10.6558C10.1422 10.6769 10.0695 10.6875 10 10.6875C9.93058 10.6875 9.8578 10.6769 9.78169 10.6558C9.70502 10.6353 9.63196 10.6042 9.56252 10.5625L3.33335 6.66666V15H16.6667V6.66666ZM10 9.16666L16.6667 4.99999H3.33335L10 9.16666ZM3.33335 6.87499V5.64583V5.66666V5.65583V6.87499Z" fill="#F71735"/>
</svg>
